<svg width="20" height="20" viewBox="0 0 20 20" fill="none" xmlns="http://www.w3.org/2000/svg">
<path fill-rule="evenodd" clip-rule="evenodd" d="M17.304 16.188C17.28 16.218 17.256 16.248 17.232 16.272C17.16 16.344 17.112 16.392 17.136 16.464C17.0868 16.4968 17.0488 16.5408 17.0144 16.5807C16.9984 16.5992 16.9832 16.6168 16.968 16.632L16.8 16.8C16.7672 16.8492 16.7232 16.8872 16.6833 16.9216C16.6648 16.9376 16.6472 16.9528 16.632 16.968C16.6168 16.9832 16.6016 17.0008 16.5856 17.0193C16.5512 17.0592 16.5132 17.1032 16.464 17.136C16.44 17.16 16.41 17.184 16.38 17.208C16.35 17.232 16.32 17.256 16.296 17.28C16.224 17.352 16.176 17.4 16.104 17.448C16.068 17.472 16.038 17.496 16.008 17.52C15.978 17.544 15.948 17.568 15.912 17.592C15.876 17.616 15.846 17.64 15.816 17.664C15.786 17.688 15.756 17.712 15.72 17.736C15.684 17.76 15.654 17.784 15.624 17.808C15.594 17.832 15.564 17.856 15.528 17.88C15.48 17.928 15.408 17.976 15.336 18.024C15.3 18.048 15.27 18.066 15.24 18.084C15.21 18.102 15.18 18.12 15.144 18.144C15.072 18.168 15 18.216 14.928 18.264C14.8989 18.2931 14.8611 18.3133 14.8197 18.3355C14.7928 18.3499 14.7644 18.3651 14.736 18.384C14.7 18.408 14.664 18.426 14.628 18.444C14.592 18.462 14.556 18.48 14.52 18.504C14.484 18.516 14.448 18.534 14.412 18.552C14.376 18.57 14.34 18.588 14.304 18.6C14.232 18.648 14.16 18.696 14.088 18.72C14.052 18.732 14.016 18.75 13.98 18.768C13.944 18.786 13.908 18.804 13.872 18.816C13.836 18.828 13.8 18.846 13.764 18.864C13.728 18.882 13.692 18.9 13.656 18.912C13.584 18.96 13.512 18.984 13.44 19.008C13.344 19.056 13.272 19.08 13.2 19.104L12.984 19.176L12.744 19.248L12.528 19.32L12.288 19.392C12.244 19.403 12.205 19.409 12.1687 19.4145C12.126 19.421 12.087 19.427 12.048 19.44C11.976 19.44 11.88 19.464 11.808 19.488C11.772 19.5 11.73 19.506 11.688 19.512C11.646 19.518 11.604 19.524 11.568 19.536C11.532 19.548 11.49 19.554 11.448 19.56C11.406 19.566 11.364 19.572 11.328 19.584C11.292 19.584 11.25 19.59 11.208 19.596C11.166 19.602 11.124 19.608 11.088 19.608C11.04 19.608 10.998 19.614 10.956 19.62C10.914 19.626 10.872 19.632 10.824 19.632C10.752 19.656 10.656 19.656 10.584 19.656C10.488 19.68 10.416 19.68 10.32 19.68H9.192C4.056 19.344 0 15.072 0 9.864V1.08C0 0.264 0.84 -0.24 1.56 0.12C2.28 0.48 4.08 1.848 4.08 1.848C4.08 1.848 4.44 1.584 4.488 1.56C4.536 1.536 4.608 1.488 4.68 1.44L4.824 1.368C4.84549 1.35367 4.86484 1.33935 4.88333 1.32566C4.92679 1.29349 4.96549 1.26484 5.016 1.248L5.16 1.176C5.196 1.164 5.226 1.146 5.256 1.128C5.286 1.11 5.316 1.092 5.352 1.08L5.496 1.008C5.532 0.996 5.562 0.978 5.592 0.96C5.622 0.942 5.652 0.924 5.688 0.912L5.832 0.84C5.868 0.828 5.898 0.816 5.928 0.804C5.958 0.792 5.988 0.78 6.024 0.768C6.096 0.744 6.144 0.72 6.192 0.696C6.228 0.684 6.258 0.672 6.288 0.66C6.318 0.648 6.348 0.636 6.384 0.624C6.432 0.624 6.504 0.6 6.552 0.576C6.588 0.564 6.618 0.552 6.648 0.54C6.678 0.528 6.708 0.516 6.744 0.504C6.768 0.492 6.798 0.486 6.828 0.48C6.858 0.474 6.888 0.468 6.912 0.456C6.96897 0.456 7.01092 0.440973 7.06162 0.422809C7.07499 0.418018 7.08897 0.413009 7.104 0.408C7.128 0.396 7.158 0.39 7.188 0.384C7.218 0.378 7.248 0.372 7.272 0.36C7.308 0.348 7.338 0.342 7.368 0.336C7.398 0.33 7.428 0.324 7.464 0.312C7.488 0.3 7.518 0.294 7.548 0.288C7.578 0.282 7.608 0.276 7.632 0.264C7.668 0.252 7.698 0.246 7.728 0.24C7.758 0.234 7.788 0.228 7.824 0.216C7.848 0.216 7.878 0.21 7.908 0.204C7.938 0.198 7.968 0.192 7.992 0.192C8.04 0.168 8.112 0.144 8.184 0.144C8.22 0.144 8.25 0.138 8.28 0.132C8.31 0.126 8.34 0.12 8.376 0.12C8.39758 0.12 8.424 0.115151 8.45309 0.109812C8.48873 0.103273 8.52836 0.0959999 8.568 0.0959999C8.604 0.0959999 8.634 0.09 8.664 0.084C8.694 0.078 8.724 0.072 8.76 0.072C8.78158 0.072 8.808 0.0671511 8.83709 0.0618122C8.87273 0.0552735 8.91236 0.048 8.952 0.048C9.024 0.024 9.072 0.0239999 9.144 0.0239999C9.216 0 9.288 0 9.36 0H10.272C10.332 0 10.386 0.00599997 10.44 0.0119999C10.494 0.0179999 10.548 0.0239999 10.608 0.0239999H10.752C10.92 0.0239999 11.064 0.0479991 11.208 0.0719986L11.232 0.072C16.008 0.744 19.704 4.848 19.704 9.816V9.84C19.68 10.008 19.68 10.152 19.68 10.32C19.656 10.368 19.656 10.44 19.656 10.488C19.656 10.548 19.65 10.602 19.644 10.656C19.638 10.71 19.632 10.764 19.632 10.824C19.632 10.8456 19.6272 10.872 19.6218 10.9011C19.6153 10.9367 19.608 10.9764 19.608 11.016C19.596 11.064 19.59 11.112 19.584 11.16C19.578 11.208 19.572 11.256 19.56 11.304C19.548 11.34 19.542 11.376 19.536 11.412C19.53 11.448 19.524 11.484 19.512 11.52C19.4993 11.5582 19.4933 11.6033 19.4869 11.6514C19.4812 11.694 19.4753 11.739 19.464 11.784C19.452 11.82 19.446 11.856 19.44 11.892C19.434 11.928 19.428 11.964 19.416 12L19.344 12.264L19.272 12.48L19.2 12.744L19.128 12.96C19.0892 13.0181 19.0661 13.0919 19.046 13.1561C19.0412 13.1714 19.0366 13.1861 19.032 13.2L18.96 13.416C18.948 13.452 18.93 13.494 18.912 13.536C18.894 13.578 18.876 13.62 18.864 13.656C18.852 13.692 18.834 13.728 18.816 13.764C18.798 13.8 18.78 13.836 18.768 13.872C18.744 13.968 18.72 14.04 18.672 14.112C18.6647 14.1265 18.6553 14.1433 18.6449 14.1615C18.6211 14.2036 18.5927 14.2538 18.576 14.304C18.552 14.34 18.534 14.376 18.516 14.412C18.498 14.448 18.48 14.484 18.456 14.52C18.432 14.556 18.414 14.586 18.396 14.616C18.378 14.646 18.36 14.676 18.336 14.712C18.312 14.748 18.294 14.784 18.276 14.82C18.258 14.856 18.24 14.892 18.216 14.928C18.192 14.964 18.174 14.994 18.156 15.024C18.138 15.054 18.12 15.084 18.096 15.12L17.952 15.336C17.928 15.372 17.904 15.402 17.88 15.432C17.856 15.462 17.832 15.492 17.808 15.528C17.76 15.576 17.712 15.648 17.664 15.72C17.64 15.756 17.616 15.786 17.592 15.816C17.568 15.846 17.544 15.876 17.52 15.912C17.496 15.948 17.472 15.978 17.448 16.008C17.424 16.038 17.4 16.068 17.376 16.104C17.352 16.128 17.328 16.158 17.304 16.188ZM7.10428 14.3051C7.48828 14.6651 7.99228 14.8571 8.47228 14.8571C8.95228 14.8571 9.45628 14.6651 9.81628 14.2811L15.5283 8.59313C16.2723 7.84913 16.2723 6.62513 15.5283 5.88113C14.7843 5.13713 13.5603 5.13713 12.8163 5.88113L8.47228 10.2251L6.76828 8.52113C6.02428 7.77713 4.80028 7.77713 4.05628 8.52113C3.31228 9.26513 3.31228 10.4891 4.05628 11.2331L7.10428 14.3051Z" fill="#7B8794"/>
</svg>
