<svg width="20" height="8" viewBox="0 0 20 8" fill="none" xmlns="http://www.w3.org/2000/svg">
<path d="M2.71363 0.707466H0.833374V7.38936H2.71363V0.707466Z" fill="#CBD2D9"/>
<path fill-rule="evenodd" clip-rule="evenodd" d="M6.77387 0.707466L6.34654 3.81532L6.04741 2.14485C5.96194 1.60098 5.87647 1.1348 5.83374 0.707466H3.35522V7.38936H5.02181V2.99951L5.70554 7.38936H6.90207L7.58579 2.88297V7.38936H9.25238V0.707466H6.77387Z" fill="#CBD2D9"/>
<path fill-rule="evenodd" clip-rule="evenodd" d="M12.1602 7.38936C12.6303 7.38936 12.9722 7.35051 13.1858 7.31166C13.3995 7.27281 13.6132 7.19512 13.7414 7.07857C13.9123 6.96203 13.9978 6.80664 14.0832 6.61239C14.126 6.41815 14.1687 5.99082 14.1687 5.4081V3.07721C14.1687 2.45563 14.126 2.0283 14.0832 1.79522C14.0405 1.56213 13.955 1.36789 13.7841 1.21249C13.6132 1.01825 13.3568 0.901707 13.0576 0.82401C12.7585 0.746314 12.203 0.707466 11.3056 0.707466H9.89539V7.38936H12.1602ZM12.203 1.91176C12.2884 1.95061 12.3312 2.0283 12.3312 2.106C12.3739 2.1837 12.3739 2.37794 12.3739 2.68872V5.29155C12.3739 5.71888 12.3312 5.99082 12.2884 6.10737C12.2457 6.22391 12.0748 6.26276 11.7756 6.26276V1.87291C11.9893 1.87291 12.1175 1.87291 12.203 1.91176Z" fill="#CBD2D9"/>
<path fill-rule="evenodd" clip-rule="evenodd" d="M14.851 0.705516V7.38741H16.5603L16.6885 6.96008C16.8594 7.11547 17.0303 7.27086 17.2013 7.34856C17.3722 7.42626 17.6713 7.4651 17.885 7.4651C18.1841 7.4651 18.4405 7.38741 18.6542 7.23201C18.8679 7.07662 18.9961 6.92123 19.0815 6.72699C19.1243 6.53275 19.167 6.22196 19.167 5.83348V3.96877C19.167 3.58028 19.167 3.30835 19.1243 3.1918C19.1243 3.07526 19.0388 2.95871 18.9533 2.80332C18.8679 2.68677 18.6969 2.57023 18.526 2.49253C18.3551 2.41484 18.1414 2.37599 17.885 2.37599C17.6713 2.37599 17.3722 2.41484 17.2013 2.49253C17.0303 2.57023 16.8594 2.68677 16.6885 2.84217V0.666668H14.851V0.705516ZM17.2867 5.75578C17.2867 6.06657 17.2867 6.26081 17.244 6.37735C17.2013 6.45505 17.0731 6.4939 16.9449 6.4939C16.8167 6.4939 16.7739 6.45505 16.7312 6.37735C16.6885 6.29966 16.6885 6.10542 16.6885 5.79463V4.04646C16.6885 3.73568 16.6885 3.54143 16.7312 3.46374C16.7739 3.38604 16.8594 3.34719 16.9449 3.34719C17.0731 3.34719 17.2013 3.38604 17.244 3.46374C17.2867 3.54143 17.2867 3.73568 17.2867 4.00761V5.75578Z" fill="#CBD2D9"/>
</svg>
