<svg width="10" height="11" viewBox="0 0 10 11" fill="none" xmlns="http://www.w3.org/2000/svg">
<path d="M4.8098 0.567139C4.51579 0.567139 4.24936 0.765019 4.12996 1.07206L2.75765 4.60086C2.72435 4.68647 2.70697 4.73062 2.69272 4.7617L2.69145 4.76445L2.68874 4.76466C2.6581 4.76692 2.61574 4.76714 2.53376 4.76714L2.20761 4.76714C1.99236 4.76713 1.80666 4.76712 1.65371 4.7814C1.49228 4.79648 1.33171 4.82976 1.17721 4.91973C0.946711 5.05395 0.75931 5.26813 0.641865 5.53155C0.56314 5.70813 0.53402 5.89163 0.52083 6.07613C0.508334 6.25092 0.50834 6.46314 0.508347 6.70913V8.89179C0.50834 9.13779 0.508334 9.35002 0.52083 9.52482C0.53402 9.70931 0.56314 9.89282 0.641865 10.0694C0.75931 10.3328 0.946711 10.547 1.17721 10.6812C1.33171 10.7712 1.49228 10.8045 1.65371 10.8195C1.80666 10.8338 1.99235 10.8338 2.2076 10.8338C2.39671 10.8338 2.55001 10.6586 2.55001 10.4425L2.55001 6.63381C2.55001 6.37607 2.73283 6.16714 2.95835 6.16714C3.18386 6.16714 3.36668 6.37607 3.36668 6.63381V10.0871C3.36668 10.3485 3.36668 10.4792 3.41119 10.579C3.45033 10.6668 3.5128 10.7382 3.58963 10.7829C3.67698 10.8338 3.79133 10.8338 4.02001 10.8338H6.60052C6.88585 10.8338 7.12274 10.8338 7.31765 10.8169C7.52115 10.7992 7.70874 10.7612 7.88985 10.6674C8.17306 10.5207 8.41376 10.2847 8.58366 9.98714C8.6923 9.79683 8.75366 9.5907 8.79992 9.36352C8.84422 9.14595 8.88023 8.87837 8.92361 8.55608L9.14232 6.93138C9.19981 6.50441 9.24693 6.15435 9.2636 5.86867C9.2808 5.57391 9.26955 5.29887 9.18157 5.03524C9.04647 4.63044 8.79237 4.29195 8.46284 4.0778C8.24822 3.93833 8.01207 3.8838 7.75454 3.85841C7.50493 3.83379 7.19504 3.8338 6.81703 3.83381H6.47001C6.34893 3.83381 6.28268 3.83344 6.23507 3.829L6.22969 3.82846L6.22922 3.82231C6.22533 3.7679 6.22501 3.69218 6.22501 3.55381V2.18453C6.22501 1.29127 5.5914 0.567139 4.8098 0.567139Z" fill="#7B8794"/>
</svg>
