<svg width="25" height="24" viewBox="0 0 25 24" fill="none" xmlns="http://www.w3.org/2000/svg">
<g clip-path="url(#clip0_2010_1931)">
<path d="M16.576 16.2426C18.9192 13.8995 18.9192 10.1005 16.576 7.75732" stroke="white" stroke-opacity="0.8" stroke-linecap="round" stroke-linejoin="round"/>
<path d="M8.09073 16.2426C5.74759 13.8995 5.74759 10.1005 8.09073 7.75732" stroke="white" stroke-opacity="0.8" stroke-linecap="round" stroke-linejoin="round"/>
<path d="M5.26208 19.0708C1.35684 15.1656 1.35684 8.83395 5.26208 4.92871" stroke="white" stroke-opacity="0.8" stroke-linecap="round" stroke-linejoin="round"/>
<path d="M19.4047 19.0713C23.3099 15.1661 23.3099 8.83444 19.4047 4.9292" stroke="white" stroke-opacity="0.8" stroke-linecap="round" stroke-linejoin="round"/>
<path d="M12.3334 14C13.4379 14 14.3334 13.1046 14.3334 12C14.3334 10.8954 13.4379 10 12.3334 10C11.2288 10 10.3334 10.8954 10.3334 12C10.3334 13.1046 11.2288 14 12.3334 14Z" fill="#FF4953" stroke="#FF4953" stroke-linecap="round" stroke-linejoin="round"/>
</g>
<defs>
<clipPath id="clip0_2010_1931">
<rect width="24" height="24" fill="white" transform="translate(0.333374)"/>
</clipPath>
</defs>
</svg>
